<svg id="Layer_1" data-name="Layer 1" xmlns="http://www.w3.org/2000/svg" viewBox="0 0 231.89 142.3"><defs><style>.cls-1{fill:#b3b3b3;}</style></defs><rect class="cls-1" x="0.5" y="23.8" width="23" height="118"/><path d="M78,27V144H56V27H78m1-1H55V145H79V26Z" transform="translate(-55 -2.7)"/><rect class="cls-1" x="35.5" y="23.8" width="22" height="118"/><path d="M112,27V144H91V27h21m1-1H90V145h23V26Z" transform="translate(-55 -2.7)"/><path d="M172.52,64.29c-4.05-.47-8.37-.93-12.27.57a11.1,11.1,0,0,0-6.78,7,7.74,7.74,0,0,0,3,8.57c3.06,2.26,7.21,2.8,10.89,3.24a114.91,114.91,0,0,0,13.51.55h14.22c9.38,0,18.75.11,28.12-.1s18.52-1.29,27.8-.59a72.72,72.72,0,0,0,13.52.27c1.81-.2,4-.33,5.52-1.51s1.67-3.11,1.91-4.85c.48-3.46.44-7.33-2.36-9.85s-7.42-3.07-11.08-3.87a139.87,139.87,0,0,0-27.38-3.67,114.55,114.55,0,0,0-13.73.78q-7,.72-13.94.89c-9.26.22-18.55,0-27.79.79-2.24.2-4.46.48-6.68.81-1.91.29-1.1,3.18.79,2.89,8.4-1.26,16.91-1.31,25.38-1.38,4.23,0,8.46-.07,12.69-.26s8.51-.65,12.76-1.06a101.58,101.58,0,0,1,25.12.83c4.18.64,8.33,1.46,12.46,2.37,1.9.42,3.83.81,5.71,1.34a7.87,7.87,0,0,1,4.21,2.33A6.84,6.84,0,0,1,269.23,75a20.64,20.64,0,0,1-.26,2.48,6,6,0,0,1-.52,2.26c-.44.67-1.47.75-2.19.89a29.52,29.52,0,0,1-3.12.38A52.75,52.75,0,0,1,257,81c-4.13-.2-8.25-.7-12.39-.73s-8.45.38-12.67.6c-17.13.88-34.35.42-51.5.4a118.17,118.17,0,0,1-12.34-.47c-3.28-.35-7.36-.77-10.05-2.89-2.5-2-2.28-5.18-.45-7.54,2.2-2.85,5.81-3.56,9.23-3.53a51.89,51.89,0,0,1,5.71.45c1.92.23,1.9-2.77,0-3Z" transform="translate(-55 -2.7)"/><path d="M249.81,62a41.81,41.81,0,0,1,6.24-20.37l-2.79-.75c.3,4.72,1,9.08,3.34,13.26,2,3.54,4.76,7,5.12,11.17.17,1.91,3.17,1.93,3,0C264.35,61,262.09,57.5,260,53.9a24.69,24.69,0,0,1-2.65-5.65,33.79,33.79,0,0,1-1.05-7.42,1.52,1.52,0,0,0-2.8-.76A44.86,44.86,0,0,0,246.81,62c-.07,1.93,2.93,1.93,3,0Z" transform="translate(-55 -2.7)"/><path d="M199.24,74.22q14.32,4.31,28.83,7.9c1.87.46,2.67-2.43.79-2.9Q214.36,75.63,200,71.33c-1.85-.56-2.64,2.33-.8,2.89Z" transform="translate(-55 -2.7)"/><path d="M197.65,73.16q12.09-.1,24.17-.4c1.93-.05,1.94-3.05,0-3q-12.07.28-24.17.4a1.5,1.5,0,0,0,0,3Z" transform="translate(-55 -2.7)"/><path d="M221.54,71.46l21.45,10c1.74.81,3.27-1.77,1.52-2.59l-21.46-10c-1.74-.81-3.26,1.78-1.51,2.59Z" transform="translate(-55 -2.7)"/><path d="M222.44,80a100.4,100.4,0,0,1,12.8,4c1,.39,2,.8,3,1.24a9,9,0,0,0,2.83,1.06,3.06,3.06,0,0,0,2.53-1.56l2.22-2.79a1.56,1.56,0,0,0,0-2.12,1.5,1.5,0,0,0-2.12,0l-2.09,2.63a6,6,0,0,1-.74.92q.6-.09,0-.24l-.74-.33c-1.79-.79-3.61-1.53-5.44-2.21a99.74,99.74,0,0,0-11.47-3.49c-1.88-.45-2.68,2.44-.8,2.89Z" transform="translate(-55 -2.7)"/><path d="M219.55,60.77c-4.37.37-8.83-1-13.13-1.68s-8.88-1.17-13.35-1.49c-1.93-.14-1.92,2.86,0,3,4.52.32,9,.82,13.51,1.53,4.25.67,8.64,2,13,1.64,1.91-.17,1.92-3.17,0-3Z" transform="translate(-55 -2.7)"/><path d="M192,57.79l-4.76,3.41a1.61,1.61,0,0,0-.68.9,1.49,1.49,0,0,0,2.2,1.69l4.76-3.41a1.65,1.65,0,0,0,.69-.89,1.56,1.56,0,0,0-.15-1.16,1.53,1.53,0,0,0-2.06-.54Z" transform="translate(-55 -2.7)"/><path d="M154.33,75.25C155.66,77,158,77.5,160,78a10.1,10.1,0,0,0,6.83-.54,9.09,9.09,0,0,0,4.58-11,1.54,1.54,0,0,0-1.85-1,1.52,1.52,0,0,0-1,1.85,6.11,6.11,0,0,1-3.21,7.64,7.22,7.22,0,0,1-4.79.17c-1.45-.35-3.07-.63-4-1.88a1.51,1.51,0,0,0-2.12,0,1.54,1.54,0,0,0,0,2.13Z" transform="translate(-55 -2.7)"/><path d="M159,72.36a1.5,1.5,0,0,0,0-3,1.5,1.5,0,0,0,0,3Z" transform="translate(-55 -2.7)"/><path d="M165.33,72.36a1.5,1.5,0,0,0,0-3,1.5,1.5,0,0,0,0,3Z" transform="translate(-55 -2.7)"/><path d="M158.46,75.16a1.5,1.5,0,0,0,0-3,1.5,1.5,0,0,0,0,3Z" transform="translate(-55 -2.7)"/><path d="M165.33,75.42a1.5,1.5,0,0,0,0-3,1.5,1.5,0,0,0,0,3Z" transform="translate(-55 -2.7)"/><path d="M176.8,66.31a10.42,10.42,0,0,0-1.16,2.62,8.85,8.85,0,0,0-.25,1.16,6.37,6.37,0,0,0-.12,1.51,2.2,2.2,0,0,0,1.09,1.8,4.5,4.5,0,0,0,1.73.39l2.78.34a3.49,3.49,0,0,0,2.82-.64,3.78,3.78,0,0,0,1-2.82,6.31,6.31,0,0,0-.26-2.56A3.84,3.84,0,0,0,182.68,66a6.87,6.87,0,0,0-5.25,0,1.5,1.5,0,1,0,.8,2.89,12.77,12.77,0,0,1,1.62-.4c.21,0-.41,0-.09,0l.18,0,.36,0,.43,0a1,1,0,0,0,.17,0c-.16,0-.33,0-.07,0l.32.08s.31.11,0,0-.06,0,0,0l.17.1c.12.07.06.13-.11-.09a1.58,1.58,0,0,0,.3.28c-.18-.07-.17-.24-.07-.08l.12.22c.11.17-.09-.34,0,0l.06.19c0,.07,0,.14.05.2.07.29,0-.08,0-.09a1.59,1.59,0,0,1,0,.58c0,.3,0,.6,0,.89s0,.3,0,.44.1-.37,0-.06c0,0-.08.27-.08.28s.17-.34,0-.11-.16.19.07-.08c-.16.18,0,0,.09,0-.25.16.26-.06.07,0a.65.65,0,0,0-.22,0s.37,0,.11,0h-.48c-.72-.07-1.43-.17-2.14-.26L178,70.78l-.24,0c-.41,0,.25.07,0,0s-.18-.1-.05,0,.32.22.41.44,0,.47.07.2c0-.1,0-.2,0-.3a1.64,1.64,0,0,1,0-.22v-.12c0-.17,0-.15,0,.07a2.75,2.75,0,0,1,.1-.56c0-.18.09-.36.14-.54a4.88,4.88,0,0,1,.18-.54c0-.07,0-.14.07-.21l.09-.21-.06.15a2.07,2.07,0,0,1,.27-.56c.09-.18.2-.36.31-.54a1.5,1.5,0,1,0-2.59-1.51Z" transform="translate(-55 -2.7)"/><path d="M188.36,66.66a14.06,14.06,0,0,0-.66,2.47c-.17,1-.47,2.24,0,3.15a2.09,2.09,0,0,0,1.36,1,3.88,3.88,0,0,0,1.44,0,23.36,23.36,0,0,0,2.35-.35,4.67,4.67,0,0,0,3.54-2.7,3.82,3.82,0,0,0-2-4.48c-1.86-1.08-4-.57-6-.77a1.5,1.5,0,0,0-1.5,1.5,1.54,1.54,0,0,0,1.5,1.5,18,18,0,0,0,2.2,0,9.55,9.55,0,0,1,1.07,0l.25,0c.09,0,.26,0,0,0a1.58,1.58,0,0,1,.48.1l.23.08c.22.06-.11,0-.09,0l.34.18a3,3,0,0,0,.33.21c-.25-.11-.17-.14-.08,0l.21.2a1.49,1.49,0,0,0,.12.14s-.2-.3-.07-.09a1.59,1.59,0,0,0,.18.32c-.11-.07-.1-.3,0-.11s0,.11,0,.17c.07.24,0-.11,0-.14a2.61,2.61,0,0,0,0,.28c-.07-.11.07-.32,0-.14a1,1,0,0,0,0,.16c0,.22,0-.11.07-.14a.61.61,0,0,0-.07.14s-.07.1-.1.16.22-.24.09-.12l-.25.24c-.2.19.26-.16.09-.07l-.14.09-.28.16-.16.07c-.18.09.37-.13.09,0l-.37.13c-.24.07-.48.13-.73.18l-.34.06-.17,0c-.28,0,.36,0,.06,0l-1,.12-.45.06h-.19c-.15,0-.33-.08,0,0a1,1,0,0,1,.56.43.53.53,0,0,1,.09.3c0,.14,0,.14,0,0s0-.32,0-.49a1.94,1.94,0,0,1,0-.24s.06-.44,0-.22,0,0,0-.1,0-.21.05-.3a14.57,14.57,0,0,1,.64-2.35,1.51,1.51,0,0,0-1.05-1.85,1.54,1.54,0,0,0-1.84,1Z" transform="translate(-55 -2.7)"/><path d="M198.31,64.88a24.66,24.66,0,0,0-.32,4.7,1.49,1.49,0,0,0,.59,1.18,1.42,1.42,0,0,0,1.31.27,5,5,0,0,1,.78-.24l.4-.08.21,0c.16,0,.13,0-.1,0a1.44,1.44,0,0,1,.41,0l.41,0c.36,0,.73-.09,1.08-.16a4.77,4.77,0,0,0,3.12-2,3.11,3.11,0,0,0-.16-3.75,2.76,2.76,0,0,0-3.47-.63,1.5,1.5,0,1,0,1.52,2.59c.28-.18-.12,0-.12,0l.13,0c-.27,0-.35,0-.23,0,.3,0-.26-.08-.13,0l.1,0c.14,0,.09,0-.16-.08a1,1,0,0,0,.18.1c.21.12-.25-.25-.08-.06s0,.14-.05-.09a1.08,1.08,0,0,0,.11.18c-.1-.25-.13-.3-.08-.16l0,.07c.09.27,0-.33,0-.07a1,1,0,0,1,0,.17l0-.24c0,.08-.06.22-.08.29s.17-.34,0,0a1.32,1.32,0,0,0-.16.25l.13-.17-.12.13s-.16.11-.19.17l.14-.1-.12.08-.26.14c-.27.15.28-.09,0,0l-.28.09a6.23,6.23,0,0,1-.62.15l-.3,0c-.39.07.27,0,0,0a10.75,10.75,0,0,0-2.81.54l1.9,1.44c0-.7,0-1.4,0-2.1,0-.33.05-.66.09-1a4.87,4.87,0,0,0,.06-.55c0,.1,0,.27,0,.07s0-.22,0-.32a1.61,1.61,0,0,0-.15-1.16,1.5,1.5,0,0,0-2.74.36Z" transform="translate(-55 -2.7)"/><path d="M216.27,63.61a8.9,8.9,0,0,0,0,4.75A4.39,4.39,0,0,0,218,70.54a4.87,4.87,0,0,0,2.94.64,6.06,6.06,0,0,0,4.81-2.6,4.1,4.1,0,0,0-.58-5,5.19,5.19,0,0,0-3.37-1.09,12.29,12.29,0,0,0-3.47.34,1.52,1.52,0,0,0-1.05,1.85,1.54,1.54,0,0,0,1.84,1l.62-.14.25,0c.07,0,.28-.07,0,0a6,6,0,0,1,1.2-.08,10.55,10.55,0,0,1,1.13.06c.11,0,.38,0,0,0a.59.59,0,0,1,.23,0l.23,0,.17,0c.1,0,.07,0-.09,0a.85.85,0,0,1,.21.11s.29.16.06,0-.05,0,0,0,.06.21,0-.08a1.21,1.21,0,0,0,.18.28c.15.25-.07-.26,0-.08s.06.17.08.25l0,.17c.06.19,0-.4,0-.1v.35c0,.31.06-.29,0-.09l0,.17-.06.21,0,.09c-.06.15,0,.11,0-.12-.07,0-.13.24-.18.32-.16.28.17-.18,0,0l-.13.15a2.46,2.46,0,0,0-.33.31c.12-.18.19-.14.06-.06a2.2,2.2,0,0,1-.25.17l-.4.21c-.2.1.35-.12,0,0L222,68a5.86,5.86,0,0,1-.94.23c-.22,0,.4,0,0,0l-.22,0a4.34,4.34,0,0,1-.51,0h-.07c.24,0-.1,0-.13,0l-.22,0-.15,0c-.11,0-.07,0,.1,0,0-.06-.39-.15-.38-.22s.27.25.06,0c-.05-.06-.11-.1-.16-.16a1.5,1.5,0,0,0-.11-.13c.19.11.16.24.08.1a1.48,1.48,0,0,0-.21-.37c.17.16.1.27,0,.07s0-.16-.08-.25-.06-.29-.09-.43,0,.4,0,.08a2.46,2.46,0,0,0,0-.28c0-.16,0-.32,0-.47,0-.32,0-.64.07-1s0,.28,0,.07a2,2,0,0,1,0-.24c0-.18.06-.37.1-.55a1.5,1.5,0,0,0-2.9-.8Z" transform="translate(-55 -2.7)"/><path d="M233.42,64.12a27.25,27.25,0,0,0-.67,2.84c-.21,1.12-.62,2.53.29,3.44s2,.7,3.05.73A9.36,9.36,0,0,0,239,70.8a5.21,5.21,0,0,0,3.68-3.58,3.46,3.46,0,0,0-.52-2.91,3.74,3.74,0,0,0-3-1.23,17.72,17.72,0,0,0-6.51.83,1.5,1.5,0,0,0,.79,2.9,16.56,16.56,0,0,1,2.18-.55c.18,0,.36-.06.54-.09l.21,0c.39,0,.77-.07,1.16-.08a11.88,11.88,0,0,1,2.23.07c-.34,0,.26.09.1,0s.06,0,.07,0-.27-.13-.06,0c0,0-.16-.21-.07-.07s0-.08,0-.1a.81.81,0,0,1,.07.22s0-.28,0,0v.23c0,.06-.06.21,0,0s-.06.19-.08.25-.12.19,0,0a1.19,1.19,0,0,0-.08.16l-.09.14s-.22.29-.09.13l-.19.2-.17.16s-.18.14,0,0,0,0,0,0l-.2.13-.42.22c.25-.14,0,0-.15,0l-.51.13-.44.08c.24,0,0,0,0,0l-.3,0a18.13,18.13,0,0,1-2.21-.06.52.52,0,0,0-.18,0c.29-.15.56.43.61.5l.24.4v-.13c0,.14,0,.15,0,0l0-.16c.06-.42.13-.83.21-1.24.17-.86.37-1.7.61-2.53a1.52,1.52,0,0,0-1-1.85,1.54,1.54,0,0,0-1.85,1.05Z" transform="translate(-55 -2.7)"/><path d="M153.68,88q-5.64,4-11.07,8.27a1.51,1.51,0,0,0,0,2.13,1.54,1.54,0,0,0,2.12,0q5.13-4,10.46-7.81a1.54,1.54,0,0,0,.54-2.05,1.51,1.51,0,0,0-2-.54Z" transform="translate(-55 -2.7)"/><path d="M149.69,90.45l5.35-3,2.62-1.49,1.37-.77a4.52,4.52,0,0,1,.93-.53l-.76-.2c-.23-.41-.3-.48-.21-.23,0,.08,0,.16.08.24l.18.59c.12.41.23.81.33,1.21.21.85.39,1.71.54,2.57a31.77,31.77,0,0,1,.46,5c0,1.93,3,1.93,3,0a37.24,37.24,0,0,0-.7-6.49c-.2-1-.45-2-.74-3-.33-1.16-.73-2.54-2.18-2.61-1.1,0-2.1.74-3,1.26L154.1,84.5l-5.93,3.36a1.5,1.5,0,0,0,1.52,2.59Z" transform="translate(-55 -2.7)"/><path d="M140.21,106.39a98.63,98.63,0,0,1-8.13,10.85,1.54,1.54,0,0,0,0,2.12,1.52,1.52,0,0,0,2.12,0,102,102,0,0,0,8.6-11.46,1.5,1.5,0,1,0-2.59-1.51Z" transform="translate(-55 -2.7)"/><path d="M131.82,102.31l1.88,9.9a1.51,1.51,0,0,0,1.84,1.05,1.53,1.53,0,0,0,1.05-1.85l-1.88-9.9a1.52,1.52,0,0,0-1.85-1.05,1.54,1.54,0,0,0-1,1.85Z" transform="translate(-55 -2.7)"/><path d="M153.58,109.41a21,21,0,0,0-6.46,5.08,5.35,5.35,0,0,0-1.38,4.25,4,4,0,0,0,2.41,2.88,8.3,8.3,0,0,0,7.42-.75,8.2,8.2,0,0,0,4.1-6.68,5.88,5.88,0,0,0-5.53-6.13,1.5,1.5,0,0,0,0,3,2.54,2.54,0,0,1,1.77.87,3,3,0,0,1,.76,2,5.11,5.11,0,0,1-2.33,4.2,6.13,6.13,0,0,1-2.3,1,3.78,3.78,0,0,1-1,.11c-.21,0-.42,0-.63,0s-.14,0-.06,0l-.46-.1c-.1,0-.53-.17-.37-.1a3.29,3.29,0,0,1-.52-.29c.19.13-.2-.2-.24-.26.08.11,0,.11,0,0s0,0-.06-.17a1.14,1.14,0,0,1,0-.34,4.21,4.21,0,0,1,.13-.46,4.26,4.26,0,0,1,.68-1.08A19.28,19.28,0,0,1,155.1,112a1.5,1.5,0,1,0-1.52-2.59Z" transform="translate(-55 -2.7)"/><path d="M166.29,108.16c-.63,2-1.3,4-1.89,6s-.43,4.16,1.59,5.1c1.58.74,3.63.52,5.32.29a8.28,8.28,0,0,0,4.84-2.08c1.52-1.5,2-3.62,2.38-5.65l-2.89-.8-1.28,9.09a1.55,1.55,0,0,0,1,1.84,1.5,1.5,0,0,0,1.84-1l1.28-9.09a1.54,1.54,0,0,0-1.05-1.84,1.5,1.5,0,0,0-1.84,1c-.29,1.63-.54,3.49-1.87,4.56a7.63,7.63,0,0,1-4.38,1.13,11.63,11.63,0,0,1-1.32,0s-.46,0-.29,0l-.33-.07-.1,0a.4.4,0,0,1-.29-.39,3.51,3.51,0,0,1,.13-.9c.55-2.13,1.33-4.23,2-6.33.58-1.85-2.31-2.64-2.9-.8Z" transform="translate(-55 -2.7)"/><path d="M132,34.46l19.9-15.2a1.54,1.54,0,0,0,.54-2.05,1.51,1.51,0,0,0-2.05-.54l-19.9,15.2a1.55,1.55,0,0,0-.54,2.05,1.51,1.51,0,0,0,2.05.54Z" transform="translate(-55 -2.7)"/><path d="M128.9,26.54c-2.31,2.38-4.8,4.67-7,7.19a6.39,6.39,0,0,0-1.78,3.69,3.91,3.91,0,0,0,1.93,3.48A9.57,9.57,0,0,0,125.9,42a27.38,27.38,0,0,0,4.43.26,28.32,28.32,0,0,0,9.19-1.76,1.55,1.55,0,0,0,1-1.85,1.5,1.5,0,0,0-1.84-1,26.14,26.14,0,0,1-7.31,1.61,19.1,19.1,0,0,1-7.1-.58c-.63-.22-1.29-.56-1.12-1.32a6.27,6.27,0,0,1,1.91-2.57L131,28.66c1.34-1.38-.78-3.51-2.12-2.12Z" transform="translate(-55 -2.7)"/><path d="M170.89,10.65q-1.45,8.72-3.47,17.32c-.44,1.87,2.46,2.67,2.9.79q2-8.6,3.46-17.32a1.55,1.55,0,0,0-1.05-1.84,1.5,1.5,0,0,0-1.84,1.05Z" transform="translate(-55 -2.7)"/><path d="M163.3,20.37a113,113,0,0,1,14.58,1.22,1.55,1.55,0,0,0,1.85-1.05,1.51,1.51,0,0,0-1-1.84,120.15,120.15,0,0,0-15.38-1.33c-1.93,0-1.93,3,0,3Z" transform="translate(-55 -2.7)"/><path d="M189.76,9.29a49.63,49.63,0,0,1-.83,15.52A1.51,1.51,0,0,0,191.67,26c1.37-2,3.4-3.85,5.91-4,2-.11,4.63,1.27,4.26,3.66a1.55,1.55,0,0,0,1,1.85,1.53,1.53,0,0,0,1.85-1A6.57,6.57,0,0,0,198.4,19c-4-.27-7.19,2.41-9.32,5.47l2.75,1.16a52.34,52.34,0,0,0,.93-16.32,1.54,1.54,0,0,0-1.5-1.5,1.5,1.5,0,0,0-1.5,1.5Z" transform="translate(-55 -2.7)"/><path d="M213.72,18.23A5.08,5.08,0,0,0,215.59,15c0-1.53-1.56-2.15-2.85-2.25a5.48,5.48,0,0,0-5.12,3.36c-1.56,3.52-.78,9.68,3.75,10.53a23.75,23.75,0,0,0,4.22.26c1.41,0,2.81,0,4.21-.14a1.5,1.5,0,0,0,0-3,50.74,50.74,0,0,1-5.65.11,13.14,13.14,0,0,1-2.37-.21,2,2,0,0,1-.67-.33c.17.12-.1-.11-.15-.15l-.15-.16c-.17-.18.1.15-.05-.05a3.49,3.49,0,0,1-.69-1.55,5.64,5.64,0,0,1-.18-1.87,4.47,4.47,0,0,1,1.24-3.28,2.51,2.51,0,0,1,.9-.45,1,1,0,0,1,.23-.06c-.15,0,0,0,.08,0h.24l.2,0,.11,0c.15,0,.14,0,.09,0-.31.2.06-1.4-.38-1a1.77,1.77,0,0,0-.19.33,4.63,4.63,0,0,1-.81.95,1.5,1.5,0,1,0,2.12,2.12Z" transform="translate(-55 -2.7)"/><path d="M238,8.14a28.77,28.77,0,0,1-.48,12c-.47,1.87,2.43,2.67,2.9.8a32.47,32.47,0,0,0,.47-13.56,1.5,1.5,0,0,0-2.89.79Z" transform="translate(-55 -2.7)"/><path d="M234.94,13.54c.32-.08.64-.15,1-.21l.27,0c-.14,0-.15,0,0,0l.49,0a13.37,13.37,0,0,1,1.9,0l.49,0s.48.07.16,0c.32.05.65.11,1,.18A12.38,12.38,0,0,1,242,14a1.52,1.52,0,0,0,1.85-1,1.56,1.56,0,0,0-1-1.85,14.57,14.57,0,0,0-8.69-.5,1.51,1.51,0,0,0-1,1.85,1.53,1.53,0,0,0,1.84,1Z" transform="translate(-55 -2.7)"/><path d="M245.21,8.52a34.42,34.42,0,0,0,.52,11.36,1.51,1.51,0,0,0,2.2.89L250.88,19c.07,0,1.42-.88,1.43-.86a.34.34,0,0,1-.31,0q.21.06,0,0c-.24-.09-.22-.22-.05,0-.21-.29,0,0,.05.09s.17.3.25.46.28.56.44.83a3.52,3.52,0,0,0,1.88,1.58,1.46,1.46,0,0,0,1.46-.38A31.58,31.58,0,0,0,261,12.41a1.51,1.51,0,0,0-1.05-1.85,1.54,1.54,0,0,0-1.85,1,26.75,26.75,0,0,1-4.15,7l1.46-.38c.16.08.18.08,0,0q.21.16,0,0c-.11-.13-.12-.12,0,0l-.14-.22c-.19-.3-.33-.63-.5-.95a3.38,3.38,0,0,0-1.8-1.75c-1.21-.41-2.22.21-3.22.82l-3.37,2,2.2.9a31.75,31.75,0,0,1-.41-10.56,1.5,1.5,0,0,0-1.5-1.5,1.54,1.54,0,0,0-1.5,1.5Z" transform="translate(-55 -2.7)"/><path d="M267.14,17.17a11.78,11.78,0,0,1-.08,2.3l.06-.4c-.05.34-.11.68-.18,1a1.56,1.56,0,0,0,.15,1.16,1.52,1.52,0,0,0,.9.69,1.54,1.54,0,0,0,1.15-.15,1.51,1.51,0,0,0,.69-.9,13.22,13.22,0,0,0,.31-3.71,1.61,1.61,0,0,0-.44-1.06,1.56,1.56,0,0,0-1.06-.44,1.54,1.54,0,0,0-1.06.44,1.47,1.47,0,0,0-.44,1.06Z" transform="translate(-55 -2.7)"/><path d="M267.88,5.7a1.5,1.5,0,0,0,0-3,1.5,1.5,0,0,0,0,3Z" transform="translate(-55 -2.7)"/><path d="M273,13.87a29.79,29.79,0,0,1-.33,5.42,1.55,1.55,0,0,0,1,1.85,1.53,1.53,0,0,0,1.85-1.05c.74-2.82,1.53-5.85,3.57-7.9.19-.19.5-.47.63-.57s.31-.21.46-.32c.41-.3,0,0,0-.09s1.29,1.31,1.39,1.45a11.21,11.21,0,0,1,2.17,8.71,1.54,1.54,0,0,0,1.05,1.84,1.51,1.51,0,0,0,1.84-1.05,14.08,14.08,0,0,0-2.53-11.09A11,11,0,0,0,282,8.85a2.93,2.93,0,0,0-3.56,0,11.55,11.55,0,0,0-3.7,4.38,31.51,31.51,0,0,0-2.09,6l2.89.8a34.14,34.14,0,0,0,.44-6.22c0-1.93-3-1.94-3,0Z" transform="translate(-55 -2.7)"/><path d="M173.69,40.71c0-.19,0,.24,0,.28l.06.6c0,.34.06.69.07,1,0,.72.05,1.43,0,2.15a23,23,0,0,1-.45,4,1.54,1.54,0,0,0,1,1.85,1.52,1.52,0,0,0,1.84-1,29.52,29.52,0,0,0,.26-9.7,1.52,1.52,0,0,0-1.85-1,1.55,1.55,0,0,0-1,1.85Z" transform="translate(-55 -2.7)"/><path d="M169.4,46.93l10.44-1a1.54,1.54,0,0,0,1.5-1.5,1.51,1.51,0,0,0-1.5-1.5l-10.44,1a1.54,1.54,0,0,0-1.5,1.5,1.51,1.51,0,0,0,1.5,1.5Z" transform="translate(-55 -2.7)"/><path d="M191.12,38.33a26.88,26.88,0,0,0-6.43,2.09c-1.95.91-4.07,2.46-3.88,4.89s2.63,3.56,4.86,3.57a7.63,7.63,0,0,0,5.57-2.34,7.83,7.83,0,0,0,2-6.63,1.51,1.51,0,0,0-1.85-1,1.55,1.55,0,0,0-1,1.84c0-.29,0,.24,0,.31v.49c0,.1,0,.19,0,.29s0,.33,0,.15,0,.07,0,.08-.06.28-.1.42-.09.31-.14.47-.11.31,0,.15,0,.07,0,.08a5.67,5.67,0,0,1-.61,1c-.14.19.13-.15,0,0l-.14.16-.4.4-.22.18s.21-.14,0,0l-.48.3c-.17.09-.34.18-.51.25.24-.1-.16.06-.23.08a5.7,5.7,0,0,1-.55.16l-.21,0s-.47.06-.16,0a8.19,8.19,0,0,1-1,0l-.28,0c.26,0,0,0,0,0a4.39,4.39,0,0,1-.6-.15c-.1,0-.42-.19-.2-.06-.07,0-.47-.32-.25-.13l-.19-.18c0,.05.15.24,0,0,0,0-.09-.21,0-.06s0-.23,0,.05a2.44,2.44,0,0,1,0-.27c0-.09.06-.25,0,0a2.68,2.68,0,0,0,.07-.27s.09-.22,0-.08.24-.39.15-.27.07-.07.07-.08l.33-.32s.19-.15.08-.07l.16-.11.46-.28c.39-.22.81-.42,1.22-.61a23.21,23.21,0,0,1,2.58-1,23.55,23.55,0,0,1,3-.73A1.51,1.51,0,0,0,193,39.38a1.55,1.55,0,0,0-1.85-1.05Z" transform="translate(-55 -2.7)"/><path d="M197.32,37.87c.86.92,1,2.38,1.71,3.41a5.34,5.34,0,0,0,3.54,2.1c1.88.3,8.55-.69,6.71-3.89a1.5,1.5,0,0,0-2.35-.3,4.39,4.39,0,0,0-.15,5.84,6,6,0,0,0,5.33,1.62,6.65,6.65,0,0,0,5.06-2.83,6.86,6.86,0,0,0,.77-3,4.31,4.31,0,0,1,.61-2.47,1.51,1.51,0,0,0-.54-2,1.53,1.53,0,0,0-2,.54,7.16,7.16,0,0,0-1,4,2.58,2.58,0,0,1-1.7,2.55,5,5,0,0,1-3.51.19,1.36,1.36,0,0,1-.68-2.2L206.69,41l.08.15L206.62,40l.26-.35-.46.19c-.25.09-.51.19-.77.27a7.42,7.42,0,0,1-1.39.34,3.38,3.38,0,0,1-2.37-.46,3.62,3.62,0,0,1-1-1.76,7.25,7.25,0,0,0-1.42-2.47c-1.31-1.42-3.43.71-2.12,2.12Z" transform="translate(-55 -2.7)"/><path d="M225.38,40.36l2.07-1a7,7,0,0,0,2-1.16c1.3-1.29.57-3.13-.86-3.92a8.53,8.53,0,0,0-7.49-.2c-2.35,1-5.17,3.92-3.16,6.51A10.31,10.31,0,0,0,224.3,44a11.59,11.59,0,0,0,8.2-1.65,1.55,1.55,0,0,0,.54-2.06A1.51,1.51,0,0,0,231,39.8a8.66,8.66,0,0,1-9.14.22,7,7,0,0,1-.83-.56c-.2-.16-.83-.57-.85-.87,0,.09.27-.4.33-.47a4,4,0,0,1,.66-.65,5.71,5.71,0,0,1,4.27-1.13,6.08,6.08,0,0,1,1.29.36c.09,0,.38.21.46.23.24.07,0,.26,0-.14a.37.37,0,0,1,0-.48c0-.13,0-.22.11-.25s-3.11,1.55-3.43,1.71a1.5,1.5,0,1,0,1.51,2.59Z" transform="translate(-55 -2.7)"/><path d="M232.54,34.73a23.06,23.06,0,0,0,1.25,5.92,1.5,1.5,0,0,0,2.94-.4,8.71,8.71,0,0,1,9.86-7.76,1.55,1.55,0,0,0,1.84-1.05,1.52,1.52,0,0,0-1-1.85,12,12,0,0,0-9.45,2.46,11.8,11.8,0,0,0-4.21,8.2l3-.4a20.51,20.51,0,0,1-1.14-5.12,1.5,1.5,0,1,0-3,0Z" transform="translate(-55 -2.7)"/><path d="M265.45,25.53a28.08,28.08,0,0,0-5.7-.67c-1.75,0-3.91-.07-5.23,1.27a3.4,3.4,0,0,0-1,2.35,2.92,2.92,0,0,0,1.47,2.4c.74.48,1.56.88,2.33,1.31.35.2.71.38,1.05.6.14.09.05,0,0,0l.18.16c.24.23.08.15.05-.07a.37.37,0,0,1,0-.18l.19-.32-.09.09,0,0c.08-.07.06-.06-.07,0,.06,0,.14,0,0,0a10.73,10.73,0,0,1-1.08.16,26.5,26.5,0,0,1-3.21.12,1.5,1.5,0,0,0,0,3,26.77,26.77,0,0,0,2.69-.07,10.35,10.35,0,0,0,2.6-.39,2.78,2.78,0,0,0,1.88-1.84,2.73,2.73,0,0,0-.91-2.66,10.53,10.53,0,0,0-2.16-1.37l-1.17-.66c-.18-.09-.35-.19-.52-.29a2.4,2.4,0,0,1-.27-.16s0-.06-.07-.05,0-.12,0,0a.87.87,0,0,0,.07.17c.08.15-.06,0,0-.07v.06c0,.11,0,.08,0-.08-.16.15.11-.14,0,0a1.14,1.14,0,0,1,.15-.16c.16-.14-.14.08.08,0a1.44,1.44,0,0,1,.35-.14,4.59,4.59,0,0,1,.51-.1l.3,0,.79,0a24.6,24.6,0,0,1,5.93.56,1.52,1.52,0,0,0,1.84-1.05,1.5,1.5,0,0,0-1-1.84Z" transform="translate(-55 -2.7)"/><path d="M196.58,117.17a25.37,25.37,0,0,0-2.25,8.14,1.5,1.5,0,0,0,1.5,1.5,1.54,1.54,0,0,0,1.5-1.5l.06-.54c0,.35,0-.1,0-.13.05-.31.1-.62.16-.93.11-.6.25-1.19.42-1.78s.34-1.17.55-1.74l.34-.88c-.11.3.05-.11.06-.14s.15-.33.23-.49a1.53,1.53,0,0,0-.54-2.05,1.52,1.52,0,0,0-2,.54Z" transform="translate(-55 -2.7)"/><path d="M198.41,110.28a1.5,1.5,0,0,0,0-3,1.5,1.5,0,0,0,0,3Z" transform="translate(-55 -2.7)"/><path d="M203.81,120a2.78,2.78,0,0,0,1.38,2.34,1.52,1.52,0,0,0,2.21-.9,10.06,10.06,0,0,1,1.95-4.92,4.47,4.47,0,0,1,3.68-1.62c1.52.19,2.28,1.46,2.69,2.91a26.49,26.49,0,0,1,.83,6.26c.07,1.93,3.08,1.94,3,0a35.92,35.92,0,0,0-.72-6.2,8.06,8.06,0,0,0-2.47-4.67c-3-2.42-7.29-1.19-9.51,1.66a12.94,12.94,0,0,0-2.35,5.78l2.21-.89a.63.63,0,0,1,.1.25,1.5,1.5,0,1,0-3,0Z" transform="translate(-55 -2.7)"/><path d="M133.39,127.45c-1.16.4-2.29.85-3.4,1.36a2.39,2.39,0,0,0-1.28,3.21,8.42,8.42,0,0,0,3.79,4.57,5.56,5.56,0,0,0,3.7.76,5.63,5.63,0,0,0,2.72-1.47,11.24,11.24,0,0,0,3.28-5.59l-2.51.66c.07.07.09.16.08.08s0,.1,0,.12c0,.18,0,.3.08.58,0,.64.09,1.29.14,1.93l.28,3.86a1.54,1.54,0,0,0,1.5,1.5,1.5,1.5,0,0,0,1.5-1.5L143,133c-.11-1.43,0-3.09-1.16-4.15a1.51,1.51,0,0,0-2.5.66,8.32,8.32,0,0,1-1.91,3.66,4,4,0,0,1-1.5,1.19,1.28,1.28,0,0,1-.71.09,2.69,2.69,0,0,1-.86-.27,5.19,5.19,0,0,1-2.53-2.49c-.15-.29-.16-.45-.3-.78s-.11-.23-.19.25c-.26.41-.25.53,0,.35a2.91,2.91,0,0,0,.6-.27c.74-.33,1.5-.61,2.28-.87a1.53,1.53,0,0,0,1-1.85,1.51,1.51,0,0,0-1.84-1Z" transform="translate(-55 -2.7)"/><path d="M160.18,127.35l-.36,8.15a1.5,1.5,0,0,0,3,0l.36-8.15a1.5,1.5,0,0,0-1.5-1.5,1.54,1.54,0,0,0-1.5,1.5Z" transform="translate(-55 -2.7)"/><path d="M164.57,126.88c.12-.07.23-.15.35-.21l.2-.11c.16-.09-.1,0-.1,0a1.51,1.51,0,0,1,.44-.14,3.69,3.69,0,0,1,.45-.11l.23,0s.23,0,0,0l.27,0,.95,0h.8l.4,0s.3,0,.08,0,.11,0,.13,0l.24.06c-.25-.06.24.07.21.12s-.2-.19-.09-.07a.93.93,0,0,0,.14.14c.12.1-.07-.08-.07-.1s.1.16.13.21c.17.32,0-.19,0,.06a2.6,2.6,0,0,0,.1.4s0-.31,0-.14a1.49,1.49,0,0,0,0,.21,2.75,2.75,0,0,1,0,.41c0,.39.06-.2,0,.07s-.05.25-.08.37-.07.24-.12.36a.68.68,0,0,1-.07.2c.09-.13.09-.19,0,0a7.08,7.08,0,0,1-.38.66l-.13.17c-.09.14.07-.09.07-.09a3.41,3.41,0,0,0-.28.33l-.32.3-.12.1c-.15.14.22-.15.05,0s-.46.3-.71.43a1.47,1.47,0,0,1-.22.1c.2-.06.13-.05,0,0a3.88,3.88,0,0,1-.45.14l-.47.1c-.22,0,.27,0,0,0l-.3,0h-.72c-.24,0,0,0,0,0s-.47-.1-.53-.11l-.5-.17a1.51,1.51,0,0,0-1.85,1.05,1.54,1.54,0,0,0,1.05,1.84,6.79,6.79,0,0,0,8.23-3.1,5.73,5.73,0,0,0,.58-4.48,3.59,3.59,0,0,0-1.67-2,5.4,5.4,0,0,0-2.44-.53,8.78,8.78,0,0,0-5.07,1.07,1.55,1.55,0,0,0-.54,2.06,1.51,1.51,0,0,0,2,.53Z" transform="translate(-55 -2.7)"/><path d="M178.15,123.54a53,53,0,0,1-2.83,11.3,1.51,1.51,0,0,0,1.05,1.84,1.53,1.53,0,0,0,1.85-1.05,56.89,56.89,0,0,0,2.93-12.09c.11-.8-.76-1.5-1.5-1.5a1.54,1.54,0,0,0-1.5,1.5Z" transform="translate(-55 -2.7)"/><path d="M182,128.11a36.14,36.14,0,0,0,.24,7.35c.35,2.49,3,3.36,5.23,3a5.37,5.37,0,0,0,4.24-3.72,8.68,8.68,0,0,0-.93-6.49c-1.29-2.27-4.1-3.62-6.54-2.29a1.5,1.5,0,1,0,1.51,2.59c.25-.13.08,0,0,0l.26-.08c.07,0,.28,0,0,0h.21a2.43,2.43,0,0,1,.27,0c.22,0-.2-.06,0,0l.2,0,.22.07.14.06.24.14.18.12c-.21-.15,0,0,0,0s.28.28.41.43c0-.05-.13-.19,0,0l.17.25.28.53s.11.26,0,.06c0,.09.07.18.1.28a9.21,9.21,0,0,1,.33,1.17c0,.07,0,.15,0,.23s.06.35,0,.18,0,.16,0,.19,0,.16,0,.24,0,.41,0,.62,0,.21,0,.31c0-.21,0,.05,0,.13a3.07,3.07,0,0,1-.14.52c-.09.29-.05.13,0,.07s-.08.16-.13.24-.25.37-.16.25l-.07.08-.22.21-.18.16s.2-.12.06-.06a3.45,3.45,0,0,0-.41.25l-.17.08c.25-.14.11,0,0,0a4.44,4.44,0,0,1-.52.15c-.15,0-.43,0-.14,0-.16,0-.32,0-.48,0h-.25c.06,0,.32.06.05,0a3.59,3.59,0,0,1-.47-.12c-.26-.07,0,0,0,0l-.22-.1-.19-.12s-.06,0,0,0-.05-.11,0,.05,0-.11,0-.11l-.06-.31c0,.22,0-.15,0-.19a38.39,38.39,0,0,1-.13-6.52,1.5,1.5,0,0,0-1.5-1.5,1.53,1.53,0,0,0-1.5,1.5Z" transform="translate(-55 -2.7)"/><path d="M190.07,130.91l-.1,6.58h3a38.2,38.2,0,0,1,.08-9.26,1.54,1.54,0,0,0-1.05-1.84,1.52,1.52,0,0,0-1.85,1,40.81,40.81,0,0,0-.18,10.06,1.54,1.54,0,0,0,1.5,1.5,1.52,1.52,0,0,0,1.5-1.5l.1-6.58a1.5,1.5,0,0,0-3,0Z" transform="translate(-55 -2.7)"/><path d="M196.64,130.32a14.25,14.25,0,0,1,.63,6.65h3a6.29,6.29,0,0,1,0-1s.06-.47,0-.25c0-.16.06-.32.1-.48a4,4,0,0,1,.65-1.49,1.27,1.27,0,0,1,.13-.19c-.07.09-.07.1,0,0a3.14,3.14,0,0,1,.31-.32c.1-.1-.1,0,.11-.09A1.76,1.76,0,0,1,202,133c-.27.1.11,0,.17,0-.15,0-.16,0-.05,0s.09,0,0,0c.15.05.18.06.09,0s-.05,0,.1,0-.07-.11.16.14c0,0,.32.34.17.16a3.62,3.62,0,0,1,.26.38,7.68,7.68,0,0,1,.41.74c0,.07.07.14.1.22h0l.13.36q.13.45.24.9c0,.16.06.31.08.46,0-.26,0,.22,0,.22,0,.31,0,.62,0,.94,0,.15,0,.31,0,.46,0-.25,0,.18,0,.22-.06.3-.14.6-.23.9a1.5,1.5,0,0,0,2.89.8,9.5,9.5,0,0,0,.14-5.1,7,7,0,0,0-2.78-4.39c-1.86-1.08-3.91,0-5.07,1.52a7.47,7.47,0,0,0-1.38,5,1.52,1.52,0,0,0,1.5,1.5,1.54,1.54,0,0,0,1.5-1.5,16.53,16.53,0,0,0-.74-7.45,1.5,1.5,0,1,0-2.89.8Z" transform="translate(-55 -2.7)"/><path d="M214.72,135.79a7.08,7.08,0,0,1,1.53-.55,3.73,3.73,0,0,0,1.81-1.44,4.45,4.45,0,0,0,.42-3.84c-1.11-3.11-5-3.76-7.59-2.05-2.78,1.83-3.75,5.63-3.25,8.78s3.08,5.22,5.85,6.37,6.73,1.67,8.83-1a1.56,1.56,0,0,0,0-2.12,1.52,1.52,0,0,0-2.13,0,2.06,2.06,0,0,1-.92.76,5.39,5.39,0,0,1-1,.24,6.74,6.74,0,0,1-2.78-.36,7.5,7.5,0,0,1-4.57-3.29,6.39,6.39,0,0,1,.62-6,3.14,3.14,0,0,1,2.2-1.37,2.11,2.11,0,0,1,1.12.15,1.22,1.22,0,0,1,.62.52,1.48,1.48,0,0,1,0,1.61.48.48,0,0,1-.24.17c-.15.06-.48.15-.7.22a4.58,4.58,0,0,0-2,1c-1.42,1.31.7,3.43,2.12,2.12Z" transform="translate(-55 -2.7)"/></svg>