<svg id="Layer_1" data-name="Layer 1" xmlns="http://www.w3.org/2000/svg" viewBox="0 0 225.48 183.8"><defs><style>.cls-1{fill:#b3b3b3;}.cls-2{fill:#f15a24;}</style></defs><rect class="cls-1" x="14.46" y="0.5" width="23" height="118"/><path d="M78,27V144H56V27H78m1-1H55V145H79V26Z" transform="translate(-41.04 -26)"/><rect class="cls-1" x="49.46" y="0.5" width="22" height="118"/><path d="M112,27V144H91V27h21m1-1H90V145h23V26Z" transform="translate(-41.04 -26)"/><path d="M150.32,66a1.5,1.5,0,0,0,0-3,1.5,1.5,0,0,0,0,3Z" transform="translate(-41.04 -26)"/><path class="cls-2" d="M101.47,83.6a133.78,133.78,0,0,1,25.39-.28l-.4-2.95c-7.36,2.7-15.16,3.42-22.92,4.09-1.55.13-2.19,2.65-.4,3l15.45,2.53-.66-2.51A9.34,9.34,0,0,1,112.68,90l.4,2.94a15.88,15.88,0,0,1,7.78-.12l-.36-2.74a22.07,22.07,0,0,1-14,1.25l1,1.84a9.31,9.31,0,0,1,4.22-4.56,1.52,1.52,0,0,0-.76-2.8l-14.7-.45,1.45,1.9a.4.4,0,0,1,.33-.37,1.52,1.52,0,0,0,.3-2.36,4,4,0,0,0-2.67-1l1.07,2.56,1.07-1c.74-.71.48-2.36-.66-2.51a22,22,0,0,0-7,.13l.8,2.89a3.47,3.47,0,0,1,3.14.8l.66-2.51A54.61,54.61,0,0,1,82.46,87.3c-1.53.23-1.33,2.52,0,2.89l7.82,2.19-.9-2.21L88,92.52a1.52,1.52,0,0,0,1.29,2.26l6.42.29a24,24,0,0,0,6.11-.08,8.49,8.49,0,0,0,6.32-6.49,1.53,1.53,0,0,0-1-1.85,16.84,16.84,0,0,0-15,3.28c-1.28,1,.16,2.74,1.46,2.51a65.46,65.46,0,0,1,12.5-1c1.93,0,1.93-3,0-3a69,69,0,0,0-13.3,1.07l1.46,2.5a13.7,13.7,0,0,1,12.06-2.51l-1-1.84a5.55,5.55,0,0,1-5.53,4.51c-3.46.06-7-.28-10.43-.43L90.56,94,92,91.69a1.53,1.53,0,0,0-.9-2.21L83.25,87.3v2.89a54,54,0,0,0,12.42-3.42,1.51,1.51,0,0,0,.67-2.5,6.69,6.69,0,0,0-6.06-1.57c-1.9.43-1.08,3.22.8,2.89a17.58,17.58,0,0,1,5.37-.13L95.79,83l-1.08,1a1.52,1.52,0,0,0,1.06,2.56.68.68,0,0,1,.55.13l.3-2.36a3.56,3.56,0,0,0-1.7,2.17,1.5,1.5,0,0,0,1.44,1.89l14.7.45L110.3,86a12.53,12.53,0,0,0-5.6,6.36,1.51,1.51,0,0,0,1,1.84A25.4,25.4,0,0,0,122,92.68a1.51,1.51,0,0,0-.36-2.74,19.13,19.13,0,0,0-9.36.12c-1.58.42-1.32,3.17.39,3a12.68,12.68,0,0,0,7.37-3.46,1.5,1.5,0,0,0-.67-2.5l-15.44-2.54-.4,2.95c8-.69,16.12-1.41,23.72-4.2a1.5,1.5,0,0,0-.4-2.94,133.78,133.78,0,0,0-25.39.28c-1.9.2-1.92,3.2,0,3Z" transform="translate(-41.04 -26)"/><path class="cls-2" d="M42.92,84.73q11-2.12,22-4.22a132,132,0,0,1,21.68-2.75L85.86,75a40.68,40.68,0,0,1-14.57,3.7c-1.57.1-2.17,2.7-.39,3a59.58,59.58,0,0,1,9.42,2.09V80.81A96.43,96.43,0,0,1,68.63,84c-1.58.32-1.26,2.42,0,2.9A20.75,20.75,0,0,0,73.22,88l-.4-3q-5,.91-10,1.39c-1.59.15-2.15,2.51-.4,2.94l3.7.91,1.85.45.81.21c.52.26,1,0,1.27-.7-1.59-.52-2.73,2.07-1.16,2.75l1.88.81L70,92.06l-.15.23A1.51,1.51,0,0,0,71,95l5.51-1.45a1.5,1.5,0,0,0-.4-2.94q-7.8-.33-15.59-.91l.4,2.94a45,45,0,0,0,6.65-2.46,1.52,1.52,0,0,0-.36-2.75l-6.51-1L57.61,86l-1.44-.22-1-.14c-.46-.16-.44,0,.08.62l-.44,1.06-1.18.08-.74-1.29,0,.16,1.5-1.5-7.07-.93v3L69,85.07l-1.29-2.25-.07.14.89-.69,1.38,1-.44,1.06s1.35.15,1.51.16l2,.12,3.71.21,7.65.45c1.94.11,1.91-2.85,0-3L56.26,80l.4,3a6.62,6.62,0,0,1,3.74-.15l-1-1L60,83.26c.7,1.78,3.6,1,2.89-.79a11.24,11.24,0,0,0-.76-1.9,2.45,2.45,0,0,0-1.91-.89,9.44,9.44,0,0,0-4.32.36,1.5,1.5,0,0,0,.4,2.94l28,2.25v-3l-13.83-.81c-1.48-.08-4.09.15-3.53,2.39.37,1.49,2.62,2,3.35.52.45-.93-.08-2.36-1.3-2.26L47.37,83.85a1.5,1.5,0,0,0,0,3l7.07.93a1.5,1.5,0,0,0,1.5-1.5,1.82,1.82,0,0,0-3.09-1.21c-1.34,1.19-.24,3,1.16,3.38a42,42,0,0,0,5.94.93l6.5,1-.36-2.75a37.81,37.81,0,0,1-5.92,2.17,1.51,1.51,0,0,0,.39,3q7.8.58,15.59.91l-.4-3-5.51,1.45,1.16,2.74a4.09,4.09,0,0,0,1.53-2,1.48,1.48,0,0,0-.69-1.69l-1.87-.82L69.21,93.1c2.5.82,3.77-2.56,2.1-4.16-.92-.89-2.32-1.08-3.51-1.37l-4.62-1.13-.4,3q5.44-.51,10.84-1.5a1.49,1.49,0,0,0,1.08-1.64A1.53,1.53,0,0,0,73.22,85a17.31,17.31,0,0,1-3.8-1v2.9a98,98,0,0,0,11.7-3.15,1.51,1.51,0,0,0,0-2.89,58.61,58.61,0,0,0-9.43-2.09l-.4,2.94a44.41,44.41,0,0,0,16.08-4.11c1.38-.64.66-2.82-.76-2.79a135.89,135.89,0,0,0-22,2.77c-7.5,1.42-15,2.87-22.49,4.3-1.89.36-1.09,3.26.8,2.9Z" transform="translate(-41.04 -26)"/><path d="M154.39,66.46a95.21,95.21,0,0,0,16.54.33c1.92-.12,1.93-3.12,0-3a95.21,95.21,0,0,1-16.54-.33,1.5,1.5,0,0,0,0,3Z" transform="translate(-41.04 -26)"/><path d="M148.68,60c-1.32.44-2.63.9-3.93,1.39A9.69,9.69,0,0,0,141.41,63a2.36,2.36,0,0,0-.23,3.18,6,6,0,0,0,3.18,1.68,70.54,70.54,0,0,0,8.26,1.76l8.76,1.59c1.89.35,2.7-2.54.8-2.89-4.51-.82-9-1.57-13.52-2.48-1-.21-2-.44-3-.72-.52-.15-1-.3-1.55-.49.26.09-.51-.21-.49-.22s-.16.64-.06.7a6.89,6.89,0,0,0,1.12-.47l1.53-.58c1.08-.4,2.16-.78,3.25-1.14,1.83-.6,1-3.5-.8-2.89Z" transform="translate(-41.04 -26)"/><path d="M184.23,48.36a77.21,77.21,0,0,1,.61,16.15c-.13,1.93,2.87,1.92,3,0a80.65,80.65,0,0,0-.72-16.94,1.5,1.5,0,0,0-1.85-1,1.53,1.53,0,0,0-1,1.84Z" transform="translate(-41.04 -26)"/><path d="M178.17,59a34.34,34.34,0,0,0,15.27-1.29c1.83-.59,1.05-3.49-.79-2.89A31,31,0,0,1,179,56.14a1.56,1.56,0,0,0-1.85,1,1.51,1.51,0,0,0,1,1.84Z" transform="translate(-41.04 -26)"/><path d="M195.7,48.11q.92,6.33,2.07,12.64a1.52,1.52,0,0,0,2.51.66,4.83,4.83,0,0,1,3.39-1.17,33.84,33.84,0,0,1,4.72.23c2.52.26,6.81.49,7.3,3.67a1.51,1.51,0,0,0,1.84,1,1.53,1.53,0,0,0,1.05-1.85c-.69-4.45-5.77-5.35-9.44-5.79s-8.22-1-11,1.74l2.51.66q-1.17-6.3-2.08-12.64a1.52,1.52,0,0,0-1.85-1.05,1.54,1.54,0,0,0-1,1.85Z" transform="translate(-41.04 -26)"/><path d="M235,54.71a5.75,5.75,0,0,0,3.12-3.1,3.22,3.22,0,0,0-1.49-3.9,8.57,8.57,0,0,0-4.46-.56,15.38,15.38,0,0,0-4.58,1c-2.71,1.08-5.47,3-6.08,6.07s1.31,5.6,4,7.06a17.82,17.82,0,0,0,10.09,2.14,1.54,1.54,0,0,0,1.5-1.5,1.51,1.51,0,0,0-1.5-1.5,15.48,15.48,0,0,1-6.68-.86c-1.56-.56-3.77-1.54-4.37-3.23s.82-3.53,2.23-4.43A12.09,12.09,0,0,1,233,50.12a8.87,8.87,0,0,1,1.73.09c.33.07.54.08.58.3a1.19,1.19,0,0,1-.33.63,5.55,5.55,0,0,1-1.5,1c-1.71.91-.19,3.5,1.51,2.59Z" transform="translate(-41.04 -26)"/><path d="M173.8,75.44l1,14a1.5,1.5,0,0,0,3,0l-1-14a1.5,1.5,0,0,0-3,0Z" transform="translate(-41.04 -26)"/><path d="M165.84,84.19l12.72,0a1.5,1.5,0,0,0,0-3l-12.72,0a1.5,1.5,0,0,0,0,3Z" transform="translate(-41.04 -26)"/><path d="M183.47,76.61A59.11,59.11,0,0,0,185.2,83a15.51,15.51,0,0,0,1.11,3,2.44,2.44,0,0,0,3.06.92,9.3,9.3,0,0,0,2.47-1.49,4.38,4.38,0,0,1,1.87-1c.68-.1.77.21,1,.81a3.63,3.63,0,0,0,1.59,1.94,1.52,1.52,0,0,0,2.2-.9,75.34,75.34,0,0,0,2.63-10.68,1.55,1.55,0,0,0-1-1.84,1.52,1.52,0,0,0-1.85,1,75,75,0,0,1-2.62,10.68l2.2-.89c-.18-.09-.27-.34-.43-.69a5.47,5.47,0,0,0-.76-1.3,3.49,3.49,0,0,0-2.95-1.17,5.9,5.9,0,0,0-3.1,1.21c-.66.48-1.67,1.58-2.56,1.48l.76.2a.46.46,0,0,1,.08.19c0-.14-.15-.4-.19-.53-.15-.4-.29-.8-.43-1.2-.26-.75-.5-1.51-.73-2.28-.45-1.53-.85-3.08-1.18-4.64-.4-1.89-3.3-1.09-2.89.8Z" transform="translate(-41.04 -26)"/><path d="M208.17,81.69c.05.23.09.47.12.7l0-.4a9,9,0,0,1,0,2.2l0-.4a9.12,9.12,0,0,1-.17.91,1.56,1.56,0,0,0,.15,1.16A1.5,1.5,0,0,0,211,85.5a10.25,10.25,0,0,0,.05-4.61,1.5,1.5,0,0,0-1.84-1,1.53,1.53,0,0,0-1.05,1.84Z" transform="translate(-41.04 -26)"/><path d="M207.06,72.36a1.5,1.5,0,0,0,0-3,1.5,1.5,0,0,0,0,3Z" transform="translate(-41.04 -26)"/><path d="M215.74,73.15a33.44,33.44,0,0,0,.36,8.24c.25,1.45,2.62,1.41,2.9,0,.23-1.17.43-2.34.69-3.5.16-.71.32-1.56,1.07-1.85a8.3,8.3,0,0,1,2.9-.26,18.24,18.24,0,0,1,3.05.18,8.21,8.21,0,0,1,5,2.47,4.62,4.62,0,0,1,1.12,4.41c-.58,1.85,2.31,2.64,2.89.8a7.55,7.55,0,0,0-1.57-7,10.59,10.59,0,0,0-6.66-3.62,22.94,22.94,0,0,0-4.14-.29,9.92,9.92,0,0,0-4,.61c-2.64,1.23-2.77,4.72-3.26,7.2H219a29.9,29.9,0,0,1-.26-7.44c.16-1.92-2.84-1.91-3,0Z" transform="translate(-41.04 -26)"/><path d="M176.8,99.11a60.17,60.17,0,0,0,.28,13.48,1.54,1.54,0,0,0,1.5,1.5c.73,0,1.61-.69,1.5-1.5a60.17,60.17,0,0,1-.28-13.48,1.51,1.51,0,0,0-1.5-1.5,1.53,1.53,0,0,0-1.5,1.5Z" transform="translate(-41.04 -26)"/><path d="M171.56,107.37A26.35,26.35,0,0,0,185.89,106a1.56,1.56,0,0,0,1.05-1.85,1.52,1.52,0,0,0-1.85-1,23.28,23.28,0,0,1-12.73,1.33,1.55,1.55,0,0,0-1.85,1,1.52,1.52,0,0,0,1.05,1.85Z" transform="translate(-41.04 -26)"/><path d="M195.6,100.37c-2.48-.25-5.35-.22-7.06,1.91s-1.3,5.29-.37,7.63,2.6,4.8,5.37,4.61a5.46,5.46,0,0,0,4.93-4.56c.54-3-.86-5.73-2.37-8.25a1.54,1.54,0,0,0-2.06-.54,1.52,1.52,0,0,0-.53,2,29.22,29.22,0,0,1,1.45,2.63,7.29,7.29,0,0,1,.64,2.33c0,.23,0,.47,0,.7a2.83,2.83,0,0,1,0,.37,3.42,3.42,0,0,1-.36,1.08c0,.07-.29.45-.17.3a3.58,3.58,0,0,1-.43.44c.16-.14-.2.12-.26.16l-.26.14c-.1,0-.1,0,0,0l-.15,0-.29.07s-.29.05,0,0a3,3,0,0,1-.52,0c-.18,0,0,0,0,0l-.29-.07c-.29-.09-.11,0-.05,0l-.28-.16a5.25,5.25,0,0,1-1.38-2,8.76,8.76,0,0,1-.67-2.34,7.08,7.08,0,0,1-.05-1.38,2.62,2.62,0,0,1,.22-1,2.28,2.28,0,0,1,1.66-1.15,9.68,9.68,0,0,1,3.31,0,1.5,1.5,0,0,0,1.5-1.5,1.54,1.54,0,0,0-1.5-1.5Z" transform="translate(-41.04 -26)"/><path d="M205.15,98.22a16.4,16.4,0,0,0-1.06,3.71,11.36,11.36,0,0,0-.15,3.94,3.07,3.07,0,0,0,2,2.49,2.77,2.77,0,0,0,1.86-.15c.32-.13.64-.43,1-.31s.61.63.79,1c.29.55.52,1.13.86,1.66.72,1.1,2,1.88,3.28,1.11,1.06-.64,1.29-1.95,1.67-3a18.33,18.33,0,0,1,1.37-2.95,19.92,19.92,0,0,1,5.05-5.8,1.5,1.5,0,0,0,0-2.12,1.53,1.53,0,0,0-2.12,0,22.06,22.06,0,0,0-5.21,5.89,22.74,22.74,0,0,0-1.68,3.39c-.24.6-.41,1.23-.64,1.83,0,0-.12.43-.13.33.87.23,1.21.18,1-.17-.09-.14-.17-.28-.25-.43-.68-1.24-1.18-2.51-2.47-3.26a3.34,3.34,0,0,0-1.82-.46,3.28,3.28,0,0,0-1.19.31,3.94,3.94,0,0,0-.65.31.52.52,0,0,1,.43.18c0,.1,0,.06-.08-.11,0,.14-.11-.48-.09-.36a8.14,8.14,0,0,1,.07-2A16.07,16.07,0,0,1,208,99a1.5,1.5,0,0,0-1-1.84,1.54,1.54,0,0,0-1.85,1Z" transform="translate(-41.04 -26)"/><path d="M226.14,102.87a7.35,7.35,0,0,0,3.71-1.11,1.55,1.55,0,0,0,.54-2.06,2.15,2.15,0,0,0-2.44-1,5.37,5.37,0,0,0-1.78.87,8.24,8.24,0,0,0-3.15,3,4.69,4.69,0,0,0-.06,4.55,4.9,4.9,0,0,0,3.74,2.16,9.9,9.9,0,0,0,5-1.29,1.5,1.5,0,0,0,.54-2,1.55,1.55,0,0,0-2.05-.54l-.74.33-.15.06-.44.16a6.82,6.82,0,0,1-.77.23c-.13,0-.26.06-.4.09l-.19,0c.14,0,.14,0,0,0s-.44,0-.66,0,.26.06,0,0l-.36-.09a2.63,2.63,0,0,1-.3-.09c-.16,0,.1,0,.11,0s-.11-.06-.14-.07l-.27-.16a.91.91,0,0,0-.13-.08c.06,0,.22.19.06,0l-.22-.22c-.18-.19.12.21,0,0,0,0-.17-.27-.15-.28s.08.27,0,.09a1.66,1.66,0,0,0-.06-.21c-.09-.37,0,.17,0-.1v-.34c0-.29-.06.23,0-.05,0-.13.06-.26.1-.39s.14-.38.06-.2.07-.14.1-.19.11-.2.18-.3l.1-.14c-.07.1-.13.15,0,0a6.14,6.14,0,0,1,.5-.52l.27-.25.14-.11c.17-.14-.19.13,0,0,.47-.32.94-.64,1.43-.93a1.93,1.93,0,0,0,.32-.19s-.3.1-.14.06l.18,0,.13,0s-.35,0-.13,0a.82.82,0,0,1-.35-.08.46.46,0,0,1-.3-.23c-.19-.23-.24-.26-.16-.11l.54-2.06c-.2.13-.41.25-.62.36s-.27.1-.07,0l-.36.12c-.21.07-.42.11-.64.16-.4.09.3,0-.12,0l-.39,0a1.5,1.5,0,0,0,0,3Z" transform="translate(-41.04 -26)"/><path d="M234,97.07a62.82,62.82,0,0,1-.26,9.2h3a15.38,15.38,0,0,1,2.07-7.86,10.89,10.89,0,0,1,2.42-3,4,4,0,0,1,2.8-1.08,1.55,1.55,0,0,0,1.85-1,1.51,1.51,0,0,0-1-1.84c-3.62-.5-6.41,2-8.25,4.86a18.22,18.22,0,0,0-2.84,10,1.52,1.52,0,0,0,1.5,1.5,1.54,1.54,0,0,0,1.5-1.5,62.82,62.82,0,0,0,.26-9.2,1.5,1.5,0,0,0-3,0Z" transform="translate(-41.04 -26)"/><path d="M247.3,93.42a2.67,2.67,0,0,0-2.5,2,3.3,3.3,0,0,0,.8,3.18,12.91,12.91,0,0,0,2.77,2l3.08,2c.64.41,1.6.88,1.8,1.59a2.18,2.18,0,0,1-.53,1.81c-1.15,1.45-3.46,1.5-5.18,1.6-1.92.11-1.93,3.11,0,3,2.3-.13,4.74-.35,6.61-1.83a5.38,5.38,0,0,0,2-5.29c-.57-2.29-3.09-3.4-4.91-4.57-1-.65-2.09-1.24-3-2-.23-.18-.51-.38-.57-.67,0,.18-.07.06.05,0-.15.14,0,.23-.39.25,1.92-.09,1.93-3.09,0-3Z" transform="translate(-41.04 -26)"/><path d="M181.22,121.33c-1.55.41-3.17.72-4.69,1.25a4,4,0,0,0-2.8,2.72c-.78,3,2.05,5.67,4.3,7.1a6,6,0,0,0,4.24,1c1.52-.3,2.36-1.68,3.18-2.88a29.64,29.64,0,0,0,3.87-8.32l-2.74.36a44.31,44.31,0,0,1,5,9.51,1.54,1.54,0,0,0,1.84,1,1.52,1.52,0,0,0,1-1.85,47.48,47.48,0,0,0-5.31-10.22,1.52,1.52,0,0,0-2.74.36,26.85,26.85,0,0,1-2.51,5.89,19.34,19.34,0,0,1-1.87,2.84c-.52.62-1.39.26-2-.06a9.05,9.05,0,0,1-2.27-1.81c-.52-.53-1.29-1.32-1.14-2.15s1.22-.82,1.8-1l3.6-.94a1.5,1.5,0,0,0-.8-2.89Z" transform="translate(-41.04 -26)"/><path d="M199.72,117.84a56.42,56.42,0,0,1,2.52,10.23,1.51,1.51,0,0,0,1.45,1.1,1.56,1.56,0,0,0,1.45-1.1c1.21-3.2,1-7,3.69-9.47a7.14,7.14,0,0,1,8.66-.63c1.64,1,3.14-1.56,1.51-2.59a10.18,10.18,0,0,0-11.7.6,10.52,10.52,0,0,0-3.4,5c-.69,2.08-.88,4.28-1.66,6.34h2.9A56.34,56.34,0,0,0,202.61,117c-.63-1.81-3.53-1-2.89.8Z" transform="translate(-41.04 -26)"/><path d="M199.68,124.09a65.09,65.09,0,0,0,16.94-1.15c1.89-.38,1.09-3.27-.8-2.89a62,62,0,0,1-16.14,1c-1.93-.12-1.92,2.88,0,3Z" transform="translate(-41.04 -26)"/><path d="M225.4,114.54a17.46,17.46,0,0,1,.23,11.2c-.57,1.84,2.32,2.63,2.9.79a20.28,20.28,0,0,0-.24-12.79,1.53,1.53,0,0,0-1.84-1,1.51,1.51,0,0,0-1,1.84Z" transform="translate(-41.04 -26)"/><path d="M225.38,123.48a86.68,86.68,0,0,0,11.86-2,1.52,1.52,0,0,0,1-1.84,1.53,1.53,0,0,0-1.85-1.05,79.67,79.67,0,0,1-11.06,1.91,1.54,1.54,0,0,0-1.5,1.5,1.5,1.5,0,0,0,1.5,1.5Z" transform="translate(-41.04 -26)"/><path d="M245.21,116.18c-.42,0,.17.06-.07,0l-.33-.08-.27-.08s-.41-.15-.21-.07-.23-.1-.21-.1l-.26-.12-.63-.3a6.19,6.19,0,0,0-3-.8c-2.26.17-3.54,1.93-4.27,3.89a12.15,12.15,0,0,0-.74,3.08,4.91,4.91,0,0,0,1.19,3.55,7.69,7.69,0,0,0,4.68,2.65,8.08,8.08,0,0,0,6.08-1.31,1.54,1.54,0,0,0,.54-2,1.53,1.53,0,0,0-2.06-.54,6.17,6.17,0,0,1-.88.55l-.23.11h0a5.05,5.05,0,0,1-.55.18,4.7,4.7,0,0,1-.51.12l-.25.05c-.23,0,.24,0,0,0s-.73,0-1.11,0c-.1,0-.57-.08-.24,0l-.52-.1a7.53,7.53,0,0,1-1-.31c.29.11-.14-.07-.23-.12s-.3-.16-.44-.25-.48-.33-.23-.14a5.34,5.34,0,0,1-.44-.39,2.6,2.6,0,0,1-.58-.7,1.82,1.82,0,0,1-.15-.27c-.08-.16,0,0,0,0a1.81,1.81,0,0,1-.09-.31c0,.16,0-.27,0-.28a7.4,7.4,0,0,1,.5-2.27c.05-.17.12-.34.18-.5s0-.07,0,0A2.56,2.56,0,0,1,239,119a5.21,5.21,0,0,1,.24-.47l.14-.22s.22-.31.1-.15l.08-.09.18-.17s.24-.19.08-.08.06,0,.1,0,.26-.15.09-.07,0,0,0,0l.24-.07c-.24.09,0,0,.13,0l.27,0c-.22,0-.09,0,0,0a5.58,5.58,0,0,1,.58.18c.27.09.08,0,0,0l.32.15.57.27a8.14,8.14,0,0,0,3,.93,1.5,1.5,0,0,0,1.5-1.5,1.53,1.53,0,0,0-1.5-1.5Z" transform="translate(-41.04 -26)"/><path d="M244.13,116.33l-.88.75-.43.34c-.18.15.17-.12,0,0l-.22.16c-.62.46-1.26.9-1.91,1.32a30.69,30.69,0,0,1-4.06,2.12,1.5,1.5,0,0,0-.53,2,1.55,1.55,0,0,0,2,.54,30.73,30.73,0,0,0,8.12-5.18,1.51,1.51,0,0,0,0-2.12,1.53,1.53,0,0,0-2.12,0Z" transform="translate(-41.04 -26)"/><path d="M254.92,113.39a33.44,33.44,0,0,0-4.18,8.5c-.45,1.37,1.55,2.63,2.5,1.46,1.79-2.19,3.11-4.68,4.78-6.94a10.59,10.59,0,0,1,5.2-4.06l-1.85-1,.22.67a1.54,1.54,0,0,0,1.85,1,1.52,1.52,0,0,0,1.05-1.84l-.23-.67a1.51,1.51,0,0,0-1.84-1.05,12.89,12.89,0,0,0-6.42,4.7c-1.77,2.26-3.07,4.85-4.88,7.07l2.51,1.46a30.44,30.44,0,0,1,3.88-7.78,1.5,1.5,0,1,0-2.59-1.52Z" transform="translate(-41.04 -26)"/><path d="M178,144.28a7.63,7.63,0,0,1-2.32,2.76c-1.17,1-2.44,1.89-3.67,2.81-2.74,2.05-5.49,4.08-8.23,6.12a1.54,1.54,0,0,0-.54,2.05,1.51,1.51,0,0,0,2.05.54q4.48-3.31,8.94-6.66c2.59-1.93,5.39-3.73,6.67-6.82a1.5,1.5,0,0,0-1-1.84,1.54,1.54,0,0,0-1.85,1Z" transform="translate(-41.04 -26)"/><path d="M172.33,140.72A34.74,34.74,0,0,0,177,151a1.53,1.53,0,0,0,2.05.54,1.51,1.51,0,0,0,.54-2,31.64,31.64,0,0,1-4.35-9.6,1.5,1.5,0,1,0-2.89.8Z" transform="translate(-41.04 -26)"/><path d="M187.72,147.16a28.53,28.53,0,0,1-3.84,1.55,6.32,6.32,0,0,0-2.92,2.41c-1.62,2.63.2,5.35,2.72,6.44a9.5,9.5,0,0,0,8-.52,19.27,19.27,0,0,0,3.47-2.32,7.84,7.84,0,0,0,2.65-2.93,3.58,3.58,0,0,0-1.52-4.21c-1.26-.91-2.82-.85-4.17-1.5a1.54,1.54,0,0,0-2.05.54,1.51,1.51,0,0,0,.53,2,17.82,17.82,0,0,0,3,1c.41.12,1.43.44,1.44,1s-1.24,1.35-1.63,1.67A17.18,17.18,0,0,1,191,154a7.35,7.35,0,0,1-5.13,1.15c-1-.21-3.2-1.13-2.33-2.49a4.09,4.09,0,0,1,2.29-1.48,17.08,17.08,0,0,0,3.39-1.41c1.64-1,.14-3.61-1.51-2.59Z" transform="translate(-41.04 -26)"/><path d="M200.29,143a47,47,0,0,0-.43,8.47,32.89,32.89,0,0,0,.42,4.33,2.63,2.63,0,0,0,2.59,2.29,5.49,5.49,0,0,0,3.15-1.42,17.64,17.64,0,0,0,2.58-2.38,18.53,18.53,0,0,0,3.57-6.17h-2.9a13.52,13.52,0,0,1,.59,6.19c-.16,1.76-.77,4.3,1.27,5.28a1.54,1.54,0,0,0,2.05-.54,1.51,1.51,0,0,0-.54-2.05c-.39-.19,0,0,0,.14a1.5,1.5,0,0,0,0-.26,4.78,4.78,0,0,1,.08-1.13c.11-.92.21-1.84.25-2.76a14.29,14.29,0,0,0-.78-5.66,1.52,1.52,0,0,0-2.9,0,14.48,14.48,0,0,1-2.41,4.39,16.67,16.67,0,0,1-1.94,2,6.77,6.77,0,0,1-1.85,1.31c-.06,0-.32.15-.3.06a.48.48,0,0,1,.49.3l0-.19a10.16,10.16,0,0,0-.18-1.43c-.11-1.1-.17-2.2-.2-3.31a42.36,42.36,0,0,1,.35-6.66,1.54,1.54,0,0,0-1.05-1.84,1.5,1.5,0,0,0-1.84,1Z" transform="translate(-41.04 -26)"/><path d="M226,143.74a41.72,41.72,0,0,0,.19,12.91c.29,1.65,3.13,1.28,2.95-.4-.31-2.87-.69-5.91.23-8.7a6.39,6.39,0,0,1,4.07-4.31,1.51,1.51,0,0,0-.8-2.9,9.35,9.35,0,0,0-5.94,5.82c-1.27,3.19-.92,6.76-.56,10.09l3-.4a37,37,0,0,1-.2-11.31,1.54,1.54,0,0,0-1-1.84,1.5,1.5,0,0,0-1.84,1Z" transform="translate(-41.04 -26)"/><path d="M223.48,150.58a27.13,27.13,0,0,0,10.07.63,1.54,1.54,0,0,0,1.5-1.5c0-.73-.66-1.61-1.5-1.5a27.16,27.16,0,0,1-4.77.18,23.14,23.14,0,0,1-4.5-.7,1.5,1.5,0,1,0-.8,2.89Z" transform="translate(-41.04 -26)"/><path d="M237.42,142.1a85.07,85.07,0,0,1,.7,10.7,1.5,1.5,0,0,0,3,0,85.07,85.07,0,0,0-.7-10.7,1.54,1.54,0,0,0-1.5-1.5,1.51,1.51,0,0,0-1.5,1.5Z" transform="translate(-41.04 -26)"/><path d="M251.55,143.13l-5.18,10.76a1.54,1.54,0,0,0,.54,2.05,1.5,1.5,0,0,0,2.05-.54l5.18-10.76a1.54,1.54,0,0,0-.54-2,1.5,1.5,0,0,0-2,.54Z" transform="translate(-41.04 -26)"/><path d="M242.88,140.77a36,36,0,0,0,6.23,11.47,1.51,1.51,0,0,0,2.12,0,1.53,1.53,0,0,0,0-2.12A32,32,0,0,1,245.78,140a1.52,1.52,0,0,0-1.85-1,1.51,1.51,0,0,0-1.05,1.84Z" transform="translate(-41.04 -26)"/><path d="M168,169.14c-2.23.76-4.68.35-6.78,1.57a5.26,5.26,0,0,0-2.15,6.27,6.55,6.55,0,0,0,4.78,4.61,6.16,6.16,0,0,0,6.29-2.44,15.49,15.49,0,0,0,1.75-3.5c.56-1.41,1.06-2.86,1.51-4.31l-2.74.35a40.7,40.7,0,0,1,3.42,9.5c.43,1.88,3.32,1.08,2.89-.8a44.13,44.13,0,0,0-3.72-10.21,1.52,1.52,0,0,0-2.74.36c-.39,1.27-.83,2.54-1.31,3.78a13.41,13.41,0,0,1-1.45,3,3.15,3.15,0,0,1-4.5.75c-1.21-.92-2.24-3.46-.82-4.61a5,5,0,0,1,2.52-.82,18,18,0,0,0,3.85-.64c1.81-.62,1-3.51-.8-2.89Z" transform="translate(-41.04 -26)"/><path d="M203.25,172.39a24.31,24.31,0,0,1,.06,3.52c0,.29,0,.59-.07.89,0,.14,0,.28,0,.41s-.06.47,0,.15c-.08.59-.19,1.18-.31,1.77a1.5,1.5,0,0,0,2.89.79,25.06,25.06,0,0,0,.49-7.53,1.5,1.5,0,0,0-3,0Z" transform="translate(-41.04 -26)"/><path d="M207.1,165.35a6.5,6.5,0,0,1,2.3-.73,1.34,1.34,0,0,1,.88.2c.16.09.11.05.29.27-.15-.18.09.17.1.19s.09.19,0,.06a1.71,1.71,0,0,1,.09.3,3.57,3.57,0,0,1,.11.47c0-.2,0,.35,0,.42a4.17,4.17,0,0,1,0,.5,11,11,0,0,1-.29,2.18c-.31,1.62-.72,3.1-2.32,3.79a18.45,18.45,0,0,1-2.75.8c-1.1.27-2.2.5-3.32.69a1.52,1.52,0,0,0-1.05,1.85,1.54,1.54,0,0,0,1.85,1,32.3,32.3,0,0,0,6.06-1.48,6.54,6.54,0,0,0,3.95-4.07,15.57,15.57,0,0,0,.87-4.88,5.24,5.24,0,0,0-1.94-4.58c-2-1.42-4.44-.53-6.41.39a1.5,1.5,0,1,0,1.52,2.59Z" transform="translate(-41.04 -26)"/><path d="M219.63,169.2,218,176.08c-.47,1.94-.87,4.23,1.08,5.5a1.51,1.51,0,0,0,2.05-.53,1.53,1.53,0,0,0-.53-2.06h0c.1.14.1.14,0,0,.07.17.07.17,0,0l0-.13h0a2.53,2.53,0,0,1,0-.28c0-.14,0-.28,0-.42,0,.31,0-.25.06-.31s.07-.31.11-.47c.12-.51.25-1,.38-1.54l1.42-5.86a1.5,1.5,0,1,0-2.89-.79Z" transform="translate(-41.04 -26)"/><path d="M227.8,169.71a28.39,28.39,0,0,0-.29,4c0,.63,0,1.27.09,1.89a3,3,0,0,0,.77,1.94,2.11,2.11,0,0,0,2.55.25,7.3,7.3,0,0,0,1.44-1.28,23.11,23.11,0,0,0,2.28-2.75,20.53,20.53,0,0,0,1.89-3.28h-2.59a6.93,6.93,0,0,1,.7,1.21c.05.1,0,.07,0-.1a1.43,1.43,0,0,1,.08.22,3,3,0,0,1,.1.32,4.54,4.54,0,0,1,.16.66l0,.16c0,.12,0,.08,0-.12a1.34,1.34,0,0,0,0,.34c0,.22,0,.45,0,.68l0,.33c0,.35.06-.26,0,.05a6.63,6.63,0,0,1-.18.77,1.5,1.5,0,0,0,2.9.8,8,8,0,0,0-1.16-6.84,1.61,1.61,0,0,0-1.3-.74,1.47,1.47,0,0,0-1.29.74,20.69,20.69,0,0,1-1.79,3.14l-.28.39c0,.05-.35.47-.13.18-.17.22-.35.44-.53.65-.39.46-.8.9-1.22,1.32-.2.2-.42.39-.62.58s-.11.1,0,0a1,1,0,0,1,.66,0,1.07,1.07,0,0,1,.4.23c.14.2.17.24.09.1.21.39.05.07,0-.06-.08-.3,0,.43,0,0s-.05-.73-.06-1.09c0-.69,0-1.37,0-2.06,0-.32,0-.64.07-1s0-.36,0-.54.09-.63,0-.29a1.65,1.65,0,0,0-.15-1.15,1.55,1.55,0,0,0-.9-.69,1.53,1.53,0,0,0-1.85,1.05Z" transform="translate(-41.04 -26)"/><path d="M240.93,165.17a22.1,22.1,0,0,1,.74,9.56h2.89a25,25,0,0,1-.53-4.81,8.26,8.26,0,0,1,.3-2.22,8,8,0,0,1,.3-.87,3.4,3.4,0,0,1,.26-.5l.19-.32c-.24.19-.25.23,0,.11l-.75.21c.3,0,.85.33,1.2.51a14.59,14.59,0,0,1,1.5.95,9.61,9.61,0,0,1,2.14,2.13,6.89,6.89,0,0,1,1.09,6.09,1.5,1.5,0,0,0,2.89.79c1.27-3.91-.47-8.15-3.5-10.74a15.8,15.8,0,0,0-2.44-1.72c-1-.53-2.16-1.27-3.28-1s-1.71,1.54-2.13,2.55a10.57,10.57,0,0,0-.68,2.94,24.1,24.1,0,0,0,.58,6.66c.25,1.41,2.67,1.46,2.89,0a25.54,25.54,0,0,0-.74-11.16c-.55-1.84-3.45-1.06-2.89.8Z" transform="translate(-41.04 -26)"/><path d="M263,168a23.31,23.31,0,0,0,1-2.9,2.11,2.11,0,0,0-1.74-2.62c-1.77-.26-3.62,1.29-4.67,2.57a6.37,6.37,0,0,0-1.58,5.3,9.09,9.09,0,0,0,3.1,4.74,9.26,9.26,0,0,0,5.94,2.69c1.94,0,1.94-3,0-3a6.21,6.21,0,0,1-3.89-1.88c-1.05-1-2.28-2.25-2.27-3.67a3.22,3.22,0,0,1,.58-1.71,6.18,6.18,0,0,1,2.24-2c.16-.08.17-.09,0,0l.15,0c-.16,0-.15,0,0,0-.5-.05-.79-.36-.87-1-.11.1-.17.48-.22.61l-.23.63-.55,1.47a1.52,1.52,0,0,0,1.05,1.85,1.54,1.54,0,0,0,1.85-1Z" transform="translate(-41.04 -26)"/><path d="M175.75,195.54l-1.51,11.94h3l0-1c0-1.94-3-1.94-3,0l0,1a1.5,1.5,0,1,0,3,0l1.51-11.94a1.5,1.5,0,0,0-1.5-1.5,1.54,1.54,0,0,0-1.5,1.5Z" transform="translate(-41.04 -26)"/><path d="M181.38,185.88a.81.81,0,0,1,0,.22l.05-.4a1,1,0,0,1-.08.29l.15-.36a.89.89,0,0,1-.14.25l.23-.3a1.14,1.14,0,0,1-.19.19l.31-.24-.09.07a1.18,1.18,0,0,0-.42.38,1.26,1.26,0,0,0-.27.51,1.22,1.22,0,0,0,0,.6,1.12,1.12,0,0,0,.18.56l.24.3a1.39,1.39,0,0,0,.66.39l.4,0a1.5,1.5,0,0,0,.75-.2,4.63,4.63,0,0,0,.42-.32l.12-.11.05-.06.27-.35.08-.14.1-.24.1-.24a.75.75,0,0,0,0-.16,3.07,3.07,0,0,0,.07-.53.43.43,0,0,0,0-.16,1.06,1.06,0,0,0-.13-.58,1,1,0,0,0-.31-.48,1.13,1.13,0,0,0-.48-.32,1.14,1.14,0,0,0-.58-.12l-.4.05a1.49,1.49,0,0,0-.66.39l-.23.3a1.45,1.45,0,0,0-.21.76Z" transform="translate(-41.04 -26)"/><path d="M183.68,201.14l-.17,4.35c-.07,1.65,2.69,2.09,2.94.39.56-3.71,2.53-7.64,5.77-9.74a4.16,4.16,0,0,1,2.36-.84,2.64,2.64,0,0,1,1.85,1.28,11.56,11.56,0,0,1,1.38,11.32,1.5,1.5,0,0,0,1.05,1.84,1.52,1.52,0,0,0,1.84-1A14.48,14.48,0,0,0,199,195.09a6.52,6.52,0,0,0-3-2.55,5.49,5.49,0,0,0-3.64.17,13.44,13.44,0,0,0-5.71,4.83,17.32,17.32,0,0,0-3.1,7.55l2.95.4.17-4.35c.07-1.93-2.93-1.92-3,0Z" transform="translate(-41.04 -26)"/><path d="M215.8,190.82c-.91,2.54-1.2,5.25-2.1,7.78a10.25,10.25,0,0,1-1.41,2.73,7.24,7.24,0,0,1-1,1.07,5.12,5.12,0,0,1-.55.4,3.79,3.79,0,0,0-.34.2c-.1.05-.11.06-.05,0,.25-.17.54-.1.86.23l.38.66,0-.12a1.54,1.54,0,0,0-1.85-1,1.52,1.52,0,0,0-1,1.85,2,2,0,0,0,2.38,1.33,5.14,5.14,0,0,0,2.08-1.15,10.38,10.38,0,0,0,2.68-3.45c1.52-3.07,1.76-6.51,2.91-9.7a1.51,1.51,0,0,0-1-1.84,1.54,1.54,0,0,0-1.85,1Z" transform="translate(-41.04 -26)"/><path d="M215.48,202.18l.56-.5.14-.11c.14-.13-.25.18-.1.07l.29-.21a10.53,10.53,0,0,1,1.29-.78l.32-.15c.06,0,.41-.19.18-.09s.13,0,.2-.07l.37-.14a10.77,10.77,0,0,1,1.46-.37,1.51,1.51,0,0,0,1.05-1.84,1.55,1.55,0,0,0-1.85-1.05,11.93,11.93,0,0,0-6,3.12,1.51,1.51,0,0,0,0,2.12,1.53,1.53,0,0,0,2.12,0Z" transform="translate(-41.04 -26)"/><path d="M233,191.42a16.43,16.43,0,0,0-4.23,11.09,2.85,2.85,0,0,0,1.94,2.78,4.17,4.17,0,0,0,3.08-.3,6.16,6.16,0,0,0,3.15-5.13c.24-2.31-.6-4.67-.1-7a1.5,1.5,0,1,0-2.89-.79c-.51,2.33.08,4.59,0,6.94a4.41,4.41,0,0,1-.69,2.53,3.9,3.9,0,0,1-.66.62,2.69,2.69,0,0,1-.29.16l-.09,0a1.87,1.87,0,0,1-.32.08c.1,0,.1,0,0,0s-.32,0-.34,0a.13.13,0,0,1,.09,0c.14.29.17.31.09.07,0,.11,0,.07,0-.13v-.36c0-.26,0-.51.05-.77a13.15,13.15,0,0,1,.55-2.78,13.59,13.59,0,0,1,2.75-5,1.54,1.54,0,0,0,0-2.12,1.52,1.52,0,0,0-2.12,0Z" transform="translate(-41.04 -26)"/><path d="M256.87,188.16q-.53,5-1.06,10.1c-.26,2.44-.59,5.17-2.36,7-1.33,1.4.78,3.53,2.12,2.12,2.17-2.27,2.79-5.3,3.15-8.32.43-3.64.77-7.29,1.15-10.93a1.5,1.5,0,0,0-1.5-1.5,1.54,1.54,0,0,0-1.5,1.5Z" transform="translate(-41.04 -26)"/><path d="M250.83,201.25l11.7-.42a1.5,1.5,0,0,0,0-3l-11.7.42a1.5,1.5,0,0,0,0,3Z" transform="translate(-41.04 -26)"/><path d="M246.55,197.07a67.63,67.63,0,0,0,.16,8.66,1.5,1.5,0,0,0,3,0,67.63,67.63,0,0,1-.16-8.66,1.51,1.51,0,0,0-1.5-1.5,1.54,1.54,0,0,0-1.5,1.5Z" transform="translate(-41.04 -26)"/><path d="M248.79,188.39a1.5,1.5,0,0,0,0-3,1.5,1.5,0,0,0,0,3Z" transform="translate(-41.04 -26)"/></svg>